<?xml version="1.0" encoding="UTF-8" standalone="no"?>
<!DOCTYPE svg PUBLIC "-//W3C//DTD SVG 1.1//EN" "http://www.w3.org/Graphics/SVG/1.1/DTD/svg11.dtd">

<!-- Created with Vectornator (http://vectornator.io/) -->
<svg height="100%" stroke-miterlimit="10" style="fill-rule:nonzero;clip-rule:evenodd;stroke-linecap:round;stroke-linejoin:round;" version="1.1" viewBox="0 0 1707 1665" width="100%" xml:space="preserve" xmlns="http://www.w3.org/2000/svg" xmlns:vectornator="http://vectornator.io" xmlns:xlink="http://www.w3.org/1999/xlink">
<metadata>
<vectornator:setting key="IsTimeLapseWatermarkDisabled" value="false"/>
<vectornator:setting key="UndoHistoryDisabled" value="true"/>
<vectornator:setting key="VNDimensionsVisible" value="true"/>
<vectornator:setting key="VNSnapToGuides" value="true"/>
<vectornator:setting key="WDCMYKEnabledKey" value="false"/>
<vectornator:setting key="WDDisplayWhiteBackground" value="false"/>
<vectornator:setting key="WDDynamicGuides" value="false"/>
<vectornator:setting key="WDGuidesVisible" value="true"/>
<vectornator:setting key="WDIsolateActiveLayer" value="false"/>
<vectornator:setting key="WDOutlineMode" value="false"/>
<vectornator:setting key="WDRulersVisible" value="true"/>
<vectornator:setting key="WDSnapToEdges" value="false"/>
<vectornator:setting key="WDSnapToGrid" value="false"/>
<vectornator:setting key="WDSnapToPoints" value="false"/>
<vectornator:setting key="WDUnits" value="Points"/>
</metadata>
<defs/>
<g id="Untitled" vectornator:layerName="Untitled">
<path d="M689.2 604.7L689.5 608.4L696 609.6C705 611.2 708.6 612.9 715.6 618.7C725.2 626.7 723.7 623.9 767.5 718.5C775.6 736.1 789.9 766.7 799.3 786.5C808.6 806.3 816.3 823.6 816.3 825C816.3 827 802.7 860.4 787 897C785.5 900.6 781.9 909.1 779 916C767.2 944.3 760.7 959.5 760.2 960.4C759.7 961.4 759.8 961.7 737 908C727.5 885.7 712.9 851.3 704.5 831.5C669.9 750.2 658 721.8 658 720.6C658 719.9 661.3 715.8 665.3 711.5C670.6 705.8 675.9 701.4 685.1 695.4C692.1 690.9 698 686.8 698.3 686.3C698.7 685.7 691.4 685.1 679.8 684.6C655 683.8 646.3 681.5 632.7 672.2C620.1 663.5 613.9 656 598.5 631C592.6 621.4 587.1 612.8 586.2 612C584.9 610.7 584.8 610.8 585.3 613C585.5 614.4 587.2 622.5 588.9 631C593 650.8 594 669.2 591.6 679.4C588 694.8 579.7 704.5 559.1 717.4C552.8 721.3 547.5 725.1 547.3 725.7C547 726.5 552.6 726.9 566.2 727.3C586.3 727.7 593 728.9 602.5 733.5C606.3 735.4 606.8 736.3 614 752.7C618.1 762.1 622.5 772.3 623.7 775.2C624.9 778.1 631.7 794 638.8 810.5C645.9 827 656.3 851.3 662 864.5C667.6 877.7 676.4 898.2 681.5 910C690.5 930.7 721.8 1003.9 730.6 1024.5C738.5 1043.2 746.8 1062.1 747.3 1062.7C748.1 1063.4 752.1 1055.3 758.9 1038.9C762.2 1031 766.7 1020 769 1014.5C783.2 980.6 804.8 929 811 914C815 904.4 821.3 889.3 825 880.5C828.7 871.7 832 863.6 832.4 862.6C833.1 860.6 834.4 863.1 852 901C855.9 909.5 861 920.3 863.1 925C865.3 929.7 880.5 962.5 896.9 998C913.3 1033.5 927.1 1062.5 927.6 1062.4C929.5 1062.3 948.1 1021.9 1011 881.5C1019.1 863.3 1035.7 826.4 1047.8 799.5C1059.9 772.5 1080 727.8 1092.4 700C1123.4 630.8 1125.9 625.6 1129.2 621.6C1133.3 616.5 1139.2 613.4 1149.5 610.7C1158.3 608.4 1158.5 608.2 1158.8 605.2L1159.1 602L1115.5 602L1071.9 602L1072.2 605.7C1072.5 609.2 1072.7 609.4 1077.5 610.5C1080.3 611.2 1083.7 612.2 1085.1 612.8C1087.7 613.9 1093 619.4 1093 621.1C1093 622.5 1089.2 631.2 1075.8 660.9C1069.2 675.6 1062.1 691.3 1060 696C1057.9 700.7 1052.1 713.7 1047 725C1041.9 736.3 1032.5 757.2 1026 771.5C1019.5 785.8 1012.9 800.6 1011.2 804.5C1009.5 808.3 1004.8 818.9 1000.8 828C996.7 837.1 987.4 857.8 980.1 874C953.7 932.5 941.8 958.5 941 959.4C940.1 960.3 939.2 958.6 927.2 932.5C924.5 926.4 920.5 917.9 918.5 913.5C914.8 905.5 903.3 880.5 893.5 859C890.6 852.7 886.3 843.4 884 838.5C881.7 833.5 878.9 827.5 877.8 825C876.7 822.5 873 814.6 869.8 807.5C866.5 800.3 863.4 794 863 793.5C862 792.3 863.5 788 871.3 769.5C874.3 762.3 885.3 736 895.8 711C927 636.3 928.1 633.7 931.3 627.7C936.8 617.2 946.7 610.8 960 609.2L965.5 608.5L965.8 604.7L966.1 601L922.8 601.2L879.5 601.5L879.5 604.9C879.5 608.2 879.7 608.4 884.5 609.5C892 611.3 894.4 612.5 897.3 616C899.2 618.2 900 620.3 900 623C900 628.1 899.2 630.2 873.5 691C867.4 705.6 858.8 725.9 854.5 736.2C850.1 746.6 846.3 755 846 755C845.7 755 842.4 747.9 838.6 739.2C834.8 730.6 827.1 713.6 821.5 701.5C808.9 674.5 797.9 650.2 793.4 639.3C789.2 629.2 788.8 621.5 792.2 616.8C794.4 613.7 803 609 806.5 609C809.4 609 811 607.1 811 603.8L811 601L749.9 601L688.9 601L689.2 604.7Z" fill="#1e2568" fill-rule="evenodd" opacity="1" stroke="none"/>
</g>
</svg>
